<?xml version="1.0" encoding="utf-8"?>
<!-- Generator: Adobe Illustrator 16.0.0, SVG Export Plug-In . SVG Version: 6.00 Build 0)  -->
<!DOCTYPE svg PUBLIC "-//W3C//DTD SVG 1.1//EN" "http://www.w3.org/Graphics/SVG/1.1/DTD/svg11.dtd">
<svg version="1.1" id="Layer_1" xmlns="http://www.w3.org/2000/svg" xmlns:xlink="http://www.w3.org/1999/xlink" x="0px" y="0px"
	 width="470px" height="434px" viewBox="0 0 470 434" enable-background="new 0 0 470 434" xml:space="preserve">
<g>
	<g>
		<g>
			<g>
				<path fill="#414042" d="M109.043,409.011c0,0.727-0.41,1.009-0.814,1.009c-2.76,0-3.456-3.355-5.638-3.355
					c-2.468,0-2.576,3.448-10.109,3.448c-9.238,0-16.72-6.084-16.72-15.62V380.19c0-9.536,7.482-15.609,16.72-15.609
					c3.298,0,6.376,0.779,8.962,2.125v-21.472c0-0.374,0.169-0.773,0.589-0.886c2.059-0.425,4.004-1.215,5.787-2.453
					c0.574-0.344,1.336,0.209,1.336,0.886L109.043,409.011z M101.443,374.214c-0.348-4.117-4.22-7.363-8.962-7.363
					c-5.986,0-9.007,3.962-9.007,10.814v19.357c0,6.605,3.231,10.805,9.007,10.805c4.742,0,8.614-3.237,8.962-7.343V374.214z"/>
				<path fill="#414042" d="M135.912,348.772c-0.517,5.786-7.113,11.23-14.927,11.911l-0.005-0.051
					c-0.087-0.436,0.189-0.86,0.615-1.02c1.858-0.666,3.676-3.354,4.659-5.816c2.991-7.564,8.916-7.145,9.438-6.653
					C136.061,347.589,135.928,348.501,135.912,348.772z M132.164,365.881v42.377c0,0.568-0.467,1.034-1.04,1.034h-5.546
					c-0.569,0-1.034-0.466-1.034-1.034l-0.092-39.923c0-0.39,0.21-0.778,0.589-0.887c2.058-0.414,3.994-1.213,5.786-2.453
					C131.37,364.668,132.164,365.201,132.164,365.881z"/>
				<path fill="#414042" d="M174.411,366.403l-12.644,43.032c-0.123,0.389-0.491,0.665-0.906,0.665l-1.93,0.012
					c-0.41,0-0.773-0.241-0.901-0.632l-14.641-42.437c-0.184-0.641,0.307-1.27,0.994-1.27h5.878c0.461,0,0.871,0.286,0.988,0.717
					l11.169,32.001v-0.036l9.536-32.318c0.061-0.221,0.26-0.363,0.491-0.363h1.476C174.258,365.774,174.509,366.092,174.411,366.403
					z"/>
				<path fill="#414042" d="M191.3,374.807c0,2.115-1.721,3.816-3.846,3.816s-3.841-1.665-3.841-3.765
					c0-5.879,5.936-10.35,14.836-10.35c9.222,0,15.798,6.11,15.798,13.638v22.932c0,3.082,2.258,5.648,5.182,6.17
					c0.261,0.047,0.446,0.283,0.446,0.549v0.973c0,0.287-0.236,0.532-0.528,0.522c-3.359-0.139-6.401-1.495-8.686-3.657
					c-3.057,2.996-7.799,4.405-13.125,4.405c-9.232,0-16.72-3.944-16.72-11.476c0-5.49,4.01-8.235,6.412-9.521
					c2.657-1.413,6.734-2.663,9.766-3.933c4.906-2.079,9.54-4.046,9.54-8.04v-2.326c0-4.394-3.011-7.905-7.983-7.905
					C194.379,366.84,191.3,370.654,191.3,374.807z M206.535,383.14c-2.509,1.434-5.423,2.744-8.429,4.021
					c-4.926,2.088-9.576,6.461-9.576,11.404c0,5.771,3.128,9.191,9.007,9.191c5.275,0,8.998-3.462,8.998-8.398V383.14z"/>
				<path fill="#414042" d="M260.571,366.696l-19.028,52.26c-3.335,8.101-11.503,13.278-18.012,10.563c-0.004,0-0.01,0-0.01,0l0,0
					c-1.93-0.778-2.827-3.032-2.013-4.998c0.814-1.956,3.026-2.894,4.958-2.105l0,0l0,0h0.005l0,0
					c0.051,0.025,2.35,0.983,2.637,1.106c3.749,1.552,8.507-1.009,10.334-5.443l3.241-8.89l-15.265-41.889
					c-0.246-0.666,0.251-1.373,0.963-1.373h6.027c0.431,0,0.809,0.267,0.953,0.671l11.425,31.325l11.512-31.627
					c0.082-0.221,0.286-0.369,0.533-0.369h1.202C260.429,365.928,260.705,366.317,260.571,366.696z"/>
				<path fill="#414042" d="M301.345,380.19v14.302c0,9.536-7.478,15.62-16.715,15.62c-9.224,0-16.716-6.084-16.716-15.62V380.19
					c0-9.536,7.492-15.609,16.716-15.609C293.867,364.581,301.345,370.654,301.345,380.19z M293.628,377.665
					c0-6.853-3.012-10.814-8.998-10.814c-5.981,0-9.003,3.962-9.003,10.814v19.357c0,6.605,3.23,10.805,9.003,10.805
					c5.766,0,8.998-4.199,8.998-10.805V377.665z"/>
				<path fill="#414042" d="M354.633,359.834c0,0-3.481,6.268-10.4,4.589c-1.788-0.421-2.965-0.594-3.953-0.226
					c-0.841,0.296-1.541,0.983-2.376,2.181c5.586,2.008,9.447,6.243,9.447,11.164v6.033c0,6.852-7.46,12.402-16.653,12.402
					c-4.951,0-9.392-1.618-12.438-4.169l0.211,0.195l-1.814,1.096c-2.002,1.213-3.267,2.734-3.267,4.69
					c0,2.489,2.725,4.041,8.307,4.041h14.083c8.972,0,16.084,6.729,16.084,13.652c0,8.26-9.294,14.743-20.827,14.865
					c-0.199,0.012-0.358-0.143-0.358-0.338v-1.557c0-0.194,0.159-0.338,0.338-0.338c8.783-0.123,14.835-4.507,14.835-10.205
					c0-4.941-3.604-8.609-10.03-8.609h-12.665c-7.865,0-13.135-3.886-13.135-9.515c0-5.623,5.494-8.635,5.494-8.635l1.239-0.746
					l0.334,0.312c-1.911-2.026-3.054-4.48-3.054-7.143v-6.033c0-6.852,7.463-12.402,16.664-12.402c1.735,0,3.416,0.205,4.988,0.573
					l-0.036-0.025c4.6-6.801,12.715-9.693,18.974-6.704C354.935,359.138,354.864,359.434,354.633,359.834z M339.665,377.542
					c0-6.401-3.104-10.14-8.968-10.14c-5.868,0-8.977,3.738-8.977,10.14h-0.005v6.033h0.005c0,6.4,3.108,10.144,8.977,10.144
					c5.854,0,8.968-3.743,8.968-10.144h0.005v-6.033H339.665z"/>
				<path fill="#414042" d="M370.683,374.807c0,2.115-1.721,3.816-3.852,3.816c-2.114,0-3.841-1.665-3.841-3.765
					c0-5.879,5.945-10.35,14.836-10.35c9.227,0,15.792,6.11,15.808,13.638l-0.016,22.932c0,3.082,2.27,5.648,5.188,6.17
					c0.261,0.047,0.455,0.283,0.455,0.549v0.973c0,0.287-0.246,0.532-0.537,0.522c-3.359-0.139-6.406-1.495-8.681-3.657
					c-3.057,2.996-7.804,4.405-13.135,4.405c-9.228,0-16.714-3.944-16.714-11.476c0-5.49,4.008-8.235,6.406-9.521
					c2.661-1.413,6.748-2.663,9.77-3.933c4.901-2.079,9.541-4.046,9.541-8.04v-2.326c0-4.394-3.012-7.905-7.983-7.905
					C373.754,366.84,370.683,370.654,370.683,374.807z M385.912,383.14c-2.504,1.434-5.413,2.744-8.419,4.021
					c-4.932,2.088-9.587,6.461-9.587,11.404c0,5.771,3.124,9.191,9.003,9.191c5.279,0,9.003-3.462,9.003-8.398V383.14z"/>
			</g>
			<g>
				<radialGradient id="SVGID_1_" cx="234.7969" cy="150.3462" r="177.401" gradientUnits="userSpaceOnUse">
					<stop  offset="0.1091" style="stop-color:#F7955B"/>
					<stop  offset="0.1893" style="stop-color:#F5865B"/>
					<stop  offset="0.3292" style="stop-color:#F3705A"/>
					<stop  offset="0.4758" style="stop-color:#F15B58"/>
					<stop  offset="0.63" style="stop-color:#EF4957"/>
					<stop  offset="0.7971" style="stop-color:#EF3E56"/>
					<stop  offset="1" style="stop-color:#EF3A56"/>
				</radialGradient>
				<path fill-rule="evenodd" clip-rule="evenodd" fill="url(#SVGID_1_)" d="M403.308,138.23c-0.846-0.819-1.747-1.49-2.766-2.074
					c-0.958-0.558-1.94-1.09-2.914-1.638c-2.206-1.239-4.439-2.417-6.702-3.539c-1.86-0.906-3.744-1.771-5.649-2.581
					c-1.729-0.742-3.482-1.434-5.243-2.079c-6.33-2.345-12.879-4.199-19.511-5.479c-10.504-2.027-21.375-2.719-31.909-0.461
					c-8.669,1.859-15.43,6.535-22.824,11.153c-4.746,2.97-9.494,5.951-14.205,8.982v-0.01c0,0-9.51,5.694-14.722,8.926
					c12.965-18.825,20.528-57.503-24.771-105.313c-18.379-16.858-40.593-32.938-53.616-38.678
					c-3.057-0.763-10.959-5.551-9.525,4.635c0.666,4.731,2.105,9.442,2.929,14.154c1.741,9.996,2.53,20.146,2.438,30.285
					c-0.082,9.125-0.374,18.246-0.112,27.366c0.082,2.54,0.297,5.064,0.435,7.599c0.154,3.026,0.579,6.114,0.579,9.136
					c0.297,3.974,0.691,7.932,1.224,11.87c0.169,1.383,0.353,2.765,0.538,4.138h0.015c0,0,0,0.061,0,0.158
					c0.537,3.984,1.147,7.953,1.854,11.901c0.036,0.123,0.062,0.241,0.098,0.374c0.2,0.686,0.409,1.388,0.604,2.104
					c0.482,1.286,0.891,2.668,1.47,4.01c0.573,1.331,1.131,2.704,1.843,4.004c0.338,0.655,0.666,1.322,1.019,1.967
					c0.395,0.635,0.768,1.265,1.157,1.885c0.727,1.275,1.618,2.407,2.442,3.523c0.79,1.167,1.731,2.135,2.581,3.093
					c0.425,0.477,0.835,0.953,1.25,1.388c0.446,0.415,0.875,0.814,1.286,1.193c0.834,0.737,1.556,1.475,2.278,2.048
					c0.738,0.548,1.374,1.025,1.895,1.424c1.06,0.788,1.66,1.239,1.66,1.239s-0.63-0.415-1.742-1.132
					c-0.553-0.353-1.229-0.789-1.997-1.286c-0.768-0.521-1.546-1.203-2.443-1.905c-0.445-0.358-0.906-0.717-1.382-1.105
					c-0.45-0.416-0.896-0.866-1.368-1.312c-0.932-0.911-1.961-1.838-2.842-2.97c-0.932-1.076-1.92-2.182-2.75-3.431
					c-0.439-0.61-0.886-1.229-1.326-1.848c-0.41-0.646-0.794-1.302-1.198-1.957c-0.83-1.285-1.506-2.657-2.192-4.009
					c-0.697-1.332-1.219-2.729-1.808-4.046c-0.471-1.357-1.024-2.643-1.383-3.907c-0.066-0.221-0.127-0.415-0.188-0.631
					c-1.265-0.625-2.556-1.229-3.882-1.771c-7.169-2.104-28.979-11.82-72.589,5.254c-10.145,2.54-21.027,5.418-31.555,3.922
					c-2.786-0.399-5.491-1.25-8.25-1.761c-2.074-0.375-4.85-1.188-6.913-0.492c-5.244,1.772,2.063,12.044,3.472,14.498
					c1.152,1.992,2.048,4.143,3.062,6.207c2.34,4.727,4.711,9.232,7.687,13.601c3.61,5.285,7.543,10.206,12.152,14.661
					c5.3,5.121,11.103,9.448,17.519,13.059c0.804,0.446,1.598,0.952,2.433,1.332c0.261,0.123,0.512,0.246,0.768,0.379
					c0.543,0.255,1.096,0.511,1.649,0.762c0.599,0.282,1.208,0.548,1.818,0.814c0.696,0.276,1.388,0.574,2.084,0.839
					c0.809,0.328,1.608,0.615,2.422,0.912c0.932,0.338,1.869,0.655,2.811,0.973c1.065,0.358,2.141,0.702,3.217,1.045
					c1.198,0.374,2.407,0.727,3.615,1.076c1.336,0.379,2.678,0.757,4.03,1.096c1.454,0.389,2.918,0.752,4.394,1.095
					c1.577,0.359,3.165,0.702,4.747,1.004c1.7,0.328,3.4,0.62,5.11,0.876c1.808,0.281,3.615,0.497,5.438,0.691
					c1.926,0.185,3.856,0.328,5.797,0.41c2.043,0.102,4.091,0.138,6.135,0.112c2.161-0.021,4.327-0.112,6.488-0.246
					c2.279-0.143,4.553-0.337,6.816-0.594c2.381-0.255,4.763-0.553,7.133-0.911c0.82-0.118,1.639-0.256,2.458-0.389
					c-4.629,2.796-9.32,5.479-14.144,7.922c-5.065,2.576-10.513,4.507-15.931,6.499c-13.325,4.88-25.763,11.901-32.836,24.437
					c-5.874,10.407-8.823,22.164-10.195,33.906c-1.593,13.638-0.087,27.402,1.812,40.932c0.39,2.755,0.457,6.206,2.837,8.164
					c4.716,3.881,10.877-6.771,13.36-9.342c4.328-4.486,8.813-8.844,13.95-12.424c3.416-2.386,7.042-4.476,10.769-6.329
					c10.309-5.142,31.171-15.741,31.171-15.741s27.356-13.52,38.259-33.204c0.999-1.567,3.713-5.525,6.38-11.343l1.563-3.509
					l3.113,7.927c1.782,4.098,3.56,8.004,5.213,11.45c10.667,25.073,28.595,36.954,43.625,46.448
					c8.127,4.455,16.382,8.73,24.867,12.547c10.325,4.648,20.832,8.838,31.725,12.279c1.904,0.604,20.172,5.961,17.723-1.557
					c-0.941-2.867-2.642-5.284-4.111-7.855c-2.104-3.667-4.086-7.426-5.976-11.236c-4.435-8.976-7.595-18.354-10.852-27.888
					c0,0-5.7-16.695-9.694-26.911c-7.467-21.84-33.122-36.824-33.122-36.824s-11.132-7.979-27.448-13.396l3.031,0.307l-6.984-1.803
					l1.435-0.046c2.528,0.701,5.074,1.357,7.645,1.92c10.651,2.355,21.56,3.533,32.456,3.472c9.972-0.051,20.101-2.125,28.493-7.738
					c11.436-7.625,20.745-17.949,28.749-29.041c6.279-8.686,12.845-18.169,23.106-22.43c2.172-0.912,4.476-1.531,6.718-2.284
					C404.562,140.504,404.788,139.689,403.308,138.23z"/>
				<path fill-rule="evenodd" clip-rule="evenodd" fill="#FFFFFF" d="M164.712,157.92c1.332,0.789,2.638,1.603,3.99,2.33
					c0.378,0.206,0.917,0.072,1.326,0.246c8.839,3.585,18.425,3.693,27.577,5.854c4.69,1.106,9.586,1.397,14.365,2.176
					c3.978,0.64,7.932,1.434,11.88,2.243c3.892,0.799,5.469,3.974,6.468,7.231c1.331,4.357,2.187,8.859,3.174,13.319
					c0.912,4.118-0.333,6.207-4.143,8.147c-2.873,1.475-5.095,3.621-5.485,7.16c-0.086,0.835-0.461,1.771-0.988,2.437
					c-4.983,6.289-9.806,12.716-15.138,18.692c-2.979,3.349-7.374,5.489-10.19,8.951c-5.664,6.96-10.759,14.389-15.941,21.754
					c-1.347,1.904-0.635,3.339,1.49,3.328c4.163-0.052,8.332-0.415,12.489-0.645c0.051-0.282,0.092-0.564,0.139-0.83
					c-1.572-0.641-3.206-1.162-4.696-1.94c-2.505-1.301-2.642-2.003-0.517-3.827c3.236-2.779,6.662-5.354,9.944-8.064
					c0.953-0.788,1.818-1.725,2.551-2.708c1.91-2.54,4.091-4.507,7.251-5.598c2.018-0.691,3.687-2.432,5.49-3.718
					c5.925-4.235,11.926-8.368,17.719-12.776c3.063-2.33,5.418-0.349,7.942,0.666c4.219,1.715,8.233,4.044,12.572,5.325
					c3.912,1.127,8.126,1.223,12.213,1.721c2.273,0.292,4.558,0.47,6.979,0.717c-0.215,1.516-0.316,2.561-0.527,3.595
					c-1.127,5.674-0.112,11.256,0.451,16.895c0.466,4.7,1.346,9.458-0.922,14.051c-0.707,1.42,0.021,2.586,1.858,2.771
					c4.717,0.471,9.428,1.188,14.16,1.47c1.854,0.107,3.753-0.718,5.627-1.122c0.046-0.313,0.082-0.64,0.123-0.968
					c-0.752-0.363-1.475-0.778-2.252-1.07c-1.835-0.706-3.847-1.09-5.516-2.08c-5.822-3.399-6.402-6.129-5.116-14.778
					c1.014-6.908,1.388-13.939,1.73-20.935c0.221-4.649-2.791-7.455-6.78-9.073c-6.872-2.781-13.815-5.419-20.791-7.943
					c-1.402-0.497-1.904-1.029-2.166-2.503c-1.198-6.679-1.069-13.325,1.055-19.721c1.173-3.549,2.869-6.791,2.694-10.759
					c-0.107-2.581,3.246-5.029,5.838-5.516c3.235-0.609,6.396-1.628,9.638-2.222c6.34-1.183,12.74-2.033,19.06-3.303
					c4.112-0.84,8.097-2.248,12.173-3.293c4.629-1.194,9.351-2.115,13.939-3.436c2.018-0.594,3.814-1.92,5.715-2.919
					c-0.098-0.328-0.189-0.64-0.287-0.968c-0.723,0-1.495-0.159-2.177,0.026c-9.319,2.448-18.778,3.676-28.415,4.076
					c-5.162,0.22-10.289,1.398-15.44,1.998c-2.934,0.337-5.899,0.399-8.854,0.543c-4.198,0.205-8.403,0.574-12.597,0.501
					c-2.161-0.031-4.323-0.768-6.422-1.388c-0.522-0.148-0.814-1.08-1.127-1.53c0.379-0.4,0.436-0.523,0.502-0.523
					c1.849-0.23,4.548,1.516,4.87-2.196c0.175-2.028,2.063-3.764,0.927-6.089c-0.312-0.625-0.011-1.588,0.103-2.386
					c1.009-7.072-2.679-12.065-9.939-11.563c-0.952,0.072-1.885,0.481-2.821,0.727c-1.824-2.709-4.753-3.872-6.812-2.141
					c-0.876,0.758-0.476,3.011-0.681,4.763c1.838,0,2.873,0,4.083,0c-0.543,1.07-1.092,2.099-1.614,3.16
					c-1.721,3.436-1.198,6.765,1.116,9.582c2.063,2.514,0.498,4.409-0.569,6.364c-0.945,1.726-2.631,1.655-4.489,1.46
					c-3.733-0.379-7.61-0.973-11.226-0.369c-6.765,1.157-13.238,0.307-19.762-1.178c-0.789-0.169-1.592-0.318-2.391-0.349
					c-8.798-0.404-17.606-0.696-26.398-1.193c-2.55-0.148-5.064-0.824-7.589-1.265C164.999,157.505,164.862,157.71,164.712,157.92z"
					/>
			</g>
		</g>
	</g>
	<g>
		<path fill="#414042" d="M398.763,353.708c1.09,0,2.152,0.278,3.191,0.838c1.037,0.559,1.846,1.358,2.424,2.399
			c0.579,1.041,0.868,2.125,0.868,3.255c0,1.118-0.285,2.192-0.854,3.225c-0.571,1.031-1.371,1.833-2.399,2.402
			c-1.029,0.571-2.104,0.856-3.229,0.856c-1.123,0-2.2-0.285-3.228-0.856c-1.029-0.569-1.831-1.371-2.404-2.402
			c-0.574-1.032-0.86-2.106-0.86-3.225c0-1.13,0.292-2.214,0.873-3.255c0.583-1.041,1.392-1.841,2.43-2.399
			C396.61,353.986,397.675,353.708,398.763,353.708z M398.763,354.782c-0.911,0-1.798,0.233-2.66,0.701
			c-0.863,0.467-1.538,1.135-2.025,2.003c-0.488,0.869-0.73,1.773-0.73,2.714c0,0.935,0.238,1.829,0.717,2.687
			c0.479,0.857,1.147,1.524,2.008,2.004c0.86,0.479,1.757,0.717,2.691,0.717s1.832-0.238,2.691-0.717
			c0.86-0.479,1.527-1.146,2.004-2.004s0.714-1.752,0.714-2.687c0-0.94-0.243-1.845-0.727-2.714
			c-0.484-0.868-1.159-1.536-2.025-2.003C400.555,355.016,399.669,354.782,398.763,354.782z M396.289,363.785v-6.982h2.399
			c0.82,0,1.413,0.065,1.78,0.193c0.367,0.13,0.658,0.354,0.877,0.676c0.218,0.32,0.327,0.662,0.327,1.022
			c0,0.511-0.183,0.955-0.547,1.334c-0.363,0.377-0.848,0.59-1.448,0.635c0.247,0.104,0.444,0.228,0.594,0.37
			c0.28,0.276,0.625,0.736,1.031,1.385l0.852,1.367h-1.376l-0.619-1.1c-0.487-0.867-0.88-1.408-1.178-1.625
			c-0.207-0.162-0.508-0.242-0.904-0.242h-0.661v2.967H396.289z M397.416,359.856h1.367c0.653,0,1.099-0.098,1.336-0.293
			c0.239-0.195,0.357-0.453,0.357-0.774c0-0.206-0.057-0.391-0.172-0.554c-0.114-0.163-0.273-0.285-0.477-0.366
			c-0.204-0.079-0.581-0.12-1.131-0.12h-1.281V359.856z"/>
	</g>
</g>
</svg>
